{"title":"Moneyball 2011 CAM XviD READNFO - MiSTERE","uid":6802959,"size":2978428352,"categoryP":"video","categoryS":"movies","magnet":"?xt=urn:btih:16afabc187bcd3c618301d42895b02f48451124e&amp;dn=Moneyball+2011+CAM+XviD+READNFO+-+MiSTERE&amp;tr=udp%3A%2F%2Ftracker.openbittorrent.com%3A80&amp;tr=udp%3A%2F%2Fopen.demonii.com%3A1337&amp;tr=udp%3A%2F%2Ftracker.coppersurfer.tk%3A6969&amp;tr=udp%3A%2F%2Fexodus.desync.com%3A6969","seeders":0,"leechers":6,"uploader":"TvTeam","files":104,"time":1320713374,"description":". \n &lt;a href=&quot;\nhttp://www.torrenting.com&quot; rel=&quot;nofollow&quot; target=&quot;_NEW&quot;&gt;\nhttp://www.torrenting.com&lt;/a&gt;          :     Once &amp; For all ;)\n\n\n               www . Torrenting . Com \n\n(((((((((((((= Enjoy No RAR releases =))))))))))))))))))))\n\n\n...................................NFO:....................................\n\n.Moneyball 2011 CAM XviD READNFO - MiSTERE\n &lt;a href=&quot;\nhttp://www.imdb.com/title/tt1210166/&quot; rel=&quot;nofollow&quot; target=&quot;_NEW&quot;&gt;\nhttp://www.imdb.com/title/tt1210166/&lt;/a&gt;\n\nSource: THS\n\nVideo\nID                               : 0\nFormat                           : MPEG-4 Visual\nFormat profile                   : Advanced Simple@L5\nFormat settings, BVOP            : 2\nFormat settings, QPel            : No\nFormat settings, GMC             : No warppoints\nFormat settings, Matrix          : Default (H.263)\nMuxing mode                      : Packed bitstream\nCodec ID                         : XVID\nCodec ID/Hint                    : XviD\nDuration                         : 2h 6mn\nBit rate                         : 1 420 Kbps\nWidth                            : 688 pixels\nHeight                           : 272 pixels\nDisplay aspect ratio             : 2.529\nFrame rate                       : 29.970 fps\nColor space                      : YUV\nChroma subsampling               : 4:2:0\nBit depth                        : 8 bits\nScan type                        : Progressive\nCompression mode                 : Lossy\nBits/(Pixel*Frame)               : 0.253\nStream size                      : 1.26 GiB (91%)\nWriting library                  : XviD 64\n\nAudio\nID                               : 1\nFormat                           : MPEG Audio\nFormat version                   : Version 1\nFormat profile                   : Layer 3\nMode                             : Joint stereo\nMode extension                   : MS Stereo\nCodec ID                         : 55\nCodec ID/Hint                    : MP3\nDuration                         : 2h 6mn\nBit rate mode                    : Constant\nBit rate                         : 128 Kbps\nChannel(s)                       : 2 channels\nSampling rate                    : 44.1 KHz\nCompression mode                 : Lossy\nStream size                      : 116 MiB (8%)\nAlignment                        : Split accross interleaves\nInterleave, duration             : 33 ms (1.00 video frame)\n\n\nSharpened and tweaked RGB \nCut into several pieces \nand cropped and rotated seperately\nOvercropped at sometimes, not at others\nHardcoded subs in some foreign language\nOverall not the best cam, \nbut here it is for those who want it\n\n\n[IMG]http://i.imgur.com/Nug4t.png[/IMG]\n[IMG]http://i.imgur.com/4mJPX.png[/IMG]\n[IMG]http://i.imgur.com/0S6sW.png[/IMG]\n[IMG]http://i.imgur.com/Untdt.png[/IMG]\n[IMG]http://i.imgur.com/VIrXZ.png[/IMG]\n[IMG]http://i.imgur.com/1yGRT.png[/IMG]\n[IMG]http://i.imgur.com/bjNk5.png[/IMG]\n[IMG]http://i.imgur.com/bnUO9.png[/IMG]","torrent":{"xt":"urn:btih:16afabc187bcd3c618301d42895b02f48451124e","amp;dn":"Moneyball+2011+CAM+XviD+READNFO+-+MiSTERE","amp;tr":["udp%3A%2F%2Ftracker.openbittorrent.com%3A80","udp%3A%2F%2Fopen.demonii.com%3A1337","udp%3A%2F%2Ftracker.coppersurfer.tk%3A6969","udp%3A%2F%2Fexodus.desync.com%3A6969"],"infoHash":"16afabc187bcd3c618301d42895b02f48451124e","infoHashBuffer":{"type":"Buffer","data":[22,175,171,193,135,188,211,198,24,48,29,66,137,91,2,244,132,81,18,78]},"announce":[],"urlList":[]}}